<?xml version="1.0" standalone="no"?>
<!DOCTYPE svg PUBLIC "-//W3C//DTD SVG 20010904//EN"
 "http://www.w3.org/TR/2001/REC-SVG-20010904/DTD/svg10.dtd">
<svg version="1.0" xmlns="http://www.w3.org/2000/svg"
 width="1024.000000pt" height="1024.000000pt" viewBox="0 0 1024.000000 1024.000000"
 preserveAspectRatio="xMidYMid meet">
<metadata>
Created by potrace 1.14, written by Peter Selinger 2001-2017
</metadata>
<g transform="translate(0.000000,1024.000000) scale(0.100000,-0.100000)"
fill="#000000" stroke="none">
<path d="M4825 9510 c-607 -49 -1145 -199 -1670 -464 -421 -213 -782 -474
-1116 -806 -725 -722 -1156 -1621 -1276 -2665 -24 -209 -24 -691 0 -900 120
-1044 551 -1943 1276 -2665 628 -624 1416 -1039 2291 -1204 722 -137 1464 -87
2180 146 1306 425 2354 1467 2790 2776 271 811 303 1664 95 2479 -433 1690
-1817 2964 -3535 3252 -69 12 -188 28 -265 37 -167 18 -615 26 -770 14z m780
-583 c636 -87 1161 -285 1673 -630 74 -49 147 -101 163 -114 l29 -25 0 -719 0
-719 -1922 0 c-1912 0 -1923 -1 -1968 -21 -55 -25 -114 -80 -143 -134 -22 -39
-22 -50 -25 -511 l-3 -471 -25 -14 c-14 -7 -49 -38 -77 -69 -276 -298 -147
-766 245 -887 84 -26 226 -22 314 9 225 79 364 274 364 509 0 104 -30 210 -80
289 -31 48 -154 170 -171 170 -5 0 -9 128 -9 285 l0 285 1913 0 c1248 0 1925
4 1948 10 78 22 157 96 190 180 11 28 15 163 19 652 l5 616 80 -100 c397 -501
659 -1071 774 -1684 37 -199 52 -337 58 -551 l6 -213 -639 0 c-621 0 -640 -1
-684 -21 -65 -29 -127 -94 -150 -157 -20 -52 -20 -79 -20 -1427 l0 -1374 -57
-44 c-146 -111 -383 -257 -570 -351 l-93 -46 0 1343 0 1343 28 16 c37 22 116
104 152 158 96 143 105 360 24 528 -32 65 -127 169 -194 212 -243 156 -581 79
-740 -169 -69 -108 -98 -274 -70 -400 25 -116 98 -234 188 -303 l42 -32 0
-1452 0 -1452 -32 -11 c-108 -35 -379 -87 -588 -113 -167 -21 -721 -18 -890 5
-186 25 -407 69 -566 113 l-134 37 0 1104 0 1103 328 0 329 0 32 -46 c38 -52
114 -115 181 -149 209 -106 459 -66 625 100 104 104 155 229 155 383 0 149
-61 287 -175 390 -167 153 -402 184 -608 81 -41 -21 -89 -58 -139 -110 l-78
-78 -497 -3 -498 -3 -53 -24 c-30 -14 -69 -43 -92 -68 -74 -85 -70 -3 -70
-1290 0 -634 -3 -1153 -7 -1153 -16 0 -261 144 -383 224 -141 94 -284 203
-424 325 l-96 84 0 2629 0 2628 1514 0 1514 0 21 -32 c27 -44 106 -119 158
-152 155 -95 371 -101 533 -15 207 110 322 347 276 569 -75 361 -450 545 -775
380 -64 -32 -168 -122 -190 -164 l-14 -26 -1366 0 -1366 1 30 25 c93 77 350
239 530 335 443 233 900 365 1470 423 97 10 665 -3 770 -17z m-3665 -3803 c0
-1328 -3 -2093 -10 -2089 -28 17 -213 353 -290 525 -225 505 -330 1003 -330
1565 0 562 105 1061 330 1565 85 191 275 530 296 530 2 0 4 -943 4 -2096z
m6959 -711 c-100 -532 -319 -1047 -634 -1494 -78 -112 -218 -288 -227 -289 -5
0 -8 423 -8 940 l0 940 443 0 444 0 -18 -97z"/>
</g>
</svg>
