<svg class="svg-icon" style="width: 1.19921875em;height: 1em;vertical-align: middle;fill: currentColor;overflow: hidden;" viewBox="0 0 1228 1024" version="1.1" xmlns="http://www.w3.org/2000/svg"><path d="M1196.987733 212.5824v540.0576c0 39.594667-34.474667 71.3728-76.765866 71.3728H323.242667c-51.780267 0-88.746667-46.762667-73.250134-92.808533l126.737067-375.808H70.417067C31.675733 355.362133 0 326.4512 0 291.089067V98.372267C0 63.044267 31.675733 34.0992 70.417067 34.0992h378.811733c26.7264 0 51.029333 13.9264 63.010133 35.703467l39.048534 71.406933H1120.256c42.257067 0 76.8 32.119467 76.8 71.3728" fill="#5398DF" /><path d="M1128.721067 997.853867H68.266667a68.266667 68.266667 0 0 1-68.266667-68.266667V280.3712a68.266667 68.266667 0 0 1 68.266667-68.266667h1060.4544a68.266667 68.266667 0 0 1 68.266666 68.266667V929.5872a68.266667 68.266667 0 0 1-68.266666 68.266667" fill="#85BCFF" /><path d="M698.368 724.992c0 9.557333-7.850667 17.066667-17.066667 17.066667-9.557333 0-17.066667-7.509333-17.066666-17.066667v-154.624c0-9.557333 7.509333-17.066667 17.066666-17.066667 9.216 0 17.066667 7.509333 17.066667 17.066667v154.624z m-111.957333 0c0 9.557333-7.509333 17.066667-17.066667 17.066667-9.216 0-17.066667-7.509333-17.066667-17.066667v-154.624c0-9.557333 7.850667-17.066667 17.066667-17.066667 9.557333 0 17.066667 7.509333 17.066667 17.066667v154.624z m158.378666-219.136h-238.933333c-18.773333 0-34.133333 15.36-34.133333 34.133333v215.381334c0 19.114667 15.36 34.133333 34.133333 34.133333h238.933333c18.773333 0 34.133333-15.018667 34.133334-34.133333v-215.381334c0-18.773333-15.36-34.133333-34.133334-34.133333z" fill="#3D89D6" /><path d="M806.912 454.997333v1.365334c0 11.946667-9.898667 21.504-21.845333 21.504H465.578667c-11.946667 0-21.845333-9.557333-21.845334-21.504V454.997333c0-11.946667 9.898667-21.845333 21.845334-21.845333h117.76v-1.706667c0-12.288 9.898667-21.845333 21.845333-21.845333h40.277333c11.946667 0 21.845333 9.557333 21.845334 21.845333v1.706667H785.066667c11.946667 0 21.845333 9.898667 21.845333 21.845333" fill="#3D89D6" /></svg>