<?xml version="1.0" encoding="utf-8"?>
<!-- Generator: Adobe Illustrator 28.3.0, SVG Export Plug-In . SVG Version: 6.00 Build 0)  -->
<svg version="1.1" id="Layer_1" xmlns="http://www.w3.org/2000/svg" xmlns:xlink="http://www.w3.org/1999/xlink" x="0px" y="0px"
	 viewBox="0 0 1024 1024" style="enable-background:new 0 0 1024 1024;" xml:space="preserve">
<style type="text/css">
	.st0{fill:#C438F9;}
	.st1{fill:#942EFF;}
	.st2{fill:#FFFFFF;}
</style>
<path class="st0" d="M967.1,281.6v628.6c0,62.6-51.2,113.8-113.8,113.8H170.7c-62.6,0-113.8-51.2-113.8-113.8V113.8
	C56.9,51.2,108.1,0,170.7,0h514.8L967.1,281.6z"/>
<path class="st1" d="M685.5,224.7V0l281.6,281.6H742.4C711.1,281.6,685.5,256,685.5,224.7"/>
<g>
	<path class="st2" d="M247,412v16.8v16.8v215v29.7v3.8h522.9v-3.8v-29.7v-215v-16.8V412H247z M413.7,551.5l36.5,39.2L280.5,640
		v-49.8L413.7,551.5z M620.1,576.4l78.2,84.1H330L620.1,576.4z M736.3,652.3L630.6,538.5l-0.1,0.1l0-0.1l-144.2,41.8l-62-66.7l0,0
		l0,0l-143.7,41.7V445.5h455.8V652.3z"/>
	
		<ellipse transform="matrix(0.9871 -0.1602 0.1602 0.9871 -73.2009 89.7027)" class="st2" cx="519.8" cy="498.9" rx="29.6" ry="29.6"/>
</g>
</svg>
